<?xml version="1.0" encoding="UTF-8"?>
<!DOCTYPE svg PUBLIC "-//W3C//DTD SVG 1.1//EN" "http://www.w3.org/Graphics/SVG/1.1/DTD/svg11.dtd">
<svg xmlns="http://www.w3.org/2000/svg" version="1.1" width="256px" height="180px" style="shape-rendering:geometricPrecision; text-rendering:geometricPrecision; image-rendering:optimizeQuality; fill-rule:evenodd; clip-rule:evenodd" xmlns:xlink="http://www.w3.org/1999/xlink">
<g><path style="opacity:1" fill="#fefefe" d="M -0.5,-0.5 C 84.8333,-0.5 170.167,-0.5 255.5,-0.5C 255.5,59.5 255.5,119.5 255.5,179.5C 170.167,179.5 84.8333,179.5 -0.5,179.5C -0.5,119.5 -0.5,59.5 -0.5,-0.5 Z"/></g>
<g><path style="opacity:1" fill="#5a5a5b" d="M 75.5,10.5 C 110.167,10.5 144.833,10.5 179.5,10.5C 181.077,34.144 174.91,55.4774 161,74.5C 155.877,80.4656 150.044,85.4656 143.5,89.5C 165.068,103.945 176.902,124.278 179,150.5C 179.499,156.491 179.666,162.491 179.5,168.5C 144.833,168.5 110.167,168.5 75.5,168.5C 74.0828,145.385 79.9161,124.385 93,105.5C 98.4288,99.2324 104.596,93.8991 111.5,89.5C 92.5066,76.8795 81.0066,59.2128 77,36.5C 75.7986,27.8748 75.2986,19.2081 75.5,10.5 Z"/></g>
<g><path style="opacity:1" fill="#fdfdfe" d="M 160.5,60.5 C 138.5,60.5 116.5,60.5 94.5,60.5C 86.7961,47.619 83.1294,33.619 83.5,18.5C 112.833,18.5 142.167,18.5 171.5,18.5C 171.865,33.7102 168.198,47.7102 160.5,60.5 Z"/></g>
<g><path style="opacity:1" fill="#9898fd" d="M 94.5,60.5 C 116.5,60.5 138.5,60.5 160.5,60.5C 153.856,72.81 144.523,82.4767 132.5,89.5C 130.844,90.1465 129.177,90.8131 127.5,91.5C 125.7,91.0976 124.033,90.4309 122.5,89.5C 110.477,82.4767 101.144,72.81 94.5,60.5 Z"/></g>
<g><path style="opacity:1" fill="#fcfcfd" d="M 122.5,89.5 C 124.033,90.4309 125.7,91.0976 127.5,91.5C 129.177,90.8131 130.844,90.1465 132.5,89.5C 154.178,102.837 166.844,122.171 170.5,147.5C 156.032,139.766 141.699,131.766 127.5,123.5C 113.01,131.244 98.6766,139.244 84.5,147.5C 88.1557,122.171 100.822,102.837 122.5,89.5 Z"/></g>
<g><path style="opacity:1" fill="#9999fe" d="M 170.5,147.5 C 171.436,151.735 171.769,156.069 171.5,160.5C 142.167,160.5 112.833,160.5 83.5,160.5C 83.2307,156.069 83.564,151.735 84.5,147.5C 98.6766,139.244 113.01,131.244 127.5,123.5C 141.699,131.766 156.032,139.766 170.5,147.5 Z"/></g>
</svg>
