<?xml version="1.0" encoding="UTF-8"?>
<!DOCTYPE svg PUBLIC "-//W3C//DTD SVG 1.1//EN" "http://www.w3.org/Graphics/SVG/1.1/DTD/svg11.dtd">
<svg xmlns="http://www.w3.org/2000/svg" version="1.1" width="256px" height="180px" style="shape-rendering:geometricPrecision; text-rendering:geometricPrecision; image-rendering:optimizeQuality; fill-rule:evenodd; clip-rule:evenodd" xmlns:xlink="http://www.w3.org/1999/xlink">
<g><path style="opacity:0.464" fill="#aeaeae" d="M 79.5,10.5 C 112.996,9.50169 146.663,9.16835 180.5,9.5C 180.823,15.69 180.49,21.69 179.5,27.5C 179.5,21.8333 179.5,16.1667 179.5,10.5C 146.167,10.5 112.833,10.5 79.5,10.5 Z"/></g>
<g><path style="opacity:0.999" fill="#595959" d="M 79.5,10.5 C 112.833,10.5 146.167,10.5 179.5,10.5C 179.5,16.1667 179.5,21.8333 179.5,27.5C 179.5,27.8333 179.5,28.1667 179.5,28.5C 177.918,31.8756 177.251,35.5422 177.5,39.5C 176.607,45.1724 174.941,50.5057 172.5,55.5C 171.12,56.7065 169.953,56.3731 169,54.5C 168.581,55.6721 167.915,56.6721 167,57.5C 165.117,56.3474 164.284,54.6807 164.5,52.5C 164.5,52.1667 164.5,51.8333 164.5,51.5C 166.834,49.8243 167.834,47.491 167.5,44.5C 167.5,44.1667 167.5,43.8333 167.5,43.5C 169.163,41.5615 169.829,39.2282 169.5,36.5C 169.5,35.8333 169.5,35.1667 169.5,34.5C 170.268,33.7375 170.768,32.7375 171,31.5C 171.499,26.8452 171.666,22.1785 171.5,17.5C 141.995,17.1686 112.662,17.5019 83.5,18.5C 83.5,19.1667 83.5,19.8333 83.5,20.5C 83.1228,25.4526 83.7895,30.1193 85.5,34.5C 85.5,35.1667 85.5,35.8333 85.5,36.5C 85.2938,39.4951 85.9605,42.1617 87.5,44.5C 88.6098,48.4063 89.4431,52.4063 90,56.5C 90.7697,55.4019 91.603,55.4019 92.5,56.5C 93.3382,56.8417 93.6716,57.5084 93.5,58.5C 93.3284,59.4916 93.6618,60.1583 94.5,60.5C 94.427,62.0269 95.0937,63.0269 96.5,63.5C 97.1098,64.391 97.4431,65.391 97.5,66.5C 98.7829,68.6064 99.6162,70.9398 100,73.5C 104.167,76.3333 107.667,79.8333 110.5,84C 112.854,84.8471 115.188,85.6805 117.5,86.5C 119.434,87.1103 121.101,88.1103 122.5,89.5C 122.5,89.8333 122.5,90.1667 122.5,90.5C 122.158,91.3382 121.492,91.6716 120.5,91.5C 118.973,91.427 117.973,92.0937 117.5,93.5C 115.858,94.803 114.191,96.1363 112.5,97.5C 111.391,97.5569 110.391,97.8902 109.5,98.5C 107.418,98.6243 105.918,99.6243 105,101.5C 103.829,100.107 102.329,99.2735 100.5,99C 101.823,98.1841 102.489,97.0174 102.5,95.5C 104.027,95.573 105.027,94.9063 105.5,93.5C 107.027,93.573 108.027,92.9063 108.5,91.5C 112.5,90.1667 112.5,88.8333 108.5,87.5C 108.027,86.0937 107.027,85.427 105.5,85.5C 105.027,84.0937 104.027,83.427 102.5,83.5C 100.833,82.5 99.5,81.1667 98.5,79.5C 98.1667,78.5 97.5,77.8333 96.5,77.5C 95.5,77.1667 94.8333,76.5 94.5,75.5C 93.9396,73.1992 93.4396,70.8659 93,68.5C 92.6667,69.1667 92.3333,69.8333 92,70.5C 91.2411,68.9371 90.0744,67.9371 88.5,67.5C 84.1561,61.1381 81.1561,54.1381 79.5,46.5C 79.8294,43.7718 79.1628,41.4385 77.5,39.5C 77.7489,35.5422 77.0823,31.8756 75.5,28.5C 75.5,27.8333 75.5,27.1667 75.5,26.5C 75.5,21.5 75.5,16.5 75.5,11.5C 76.7079,10.7659 78.0413,10.4326 79.5,10.5 Z"/></g>
<g><path style="opacity:0.062" fill="#eeeeee" d="M 75.5,11.5 C 75.5,16.5 75.5,21.5 75.5,26.5C 75.0309,22.4477 74.0309,18.4477 72.5,14.5C 73.1882,13.1451 74.1882,12.1451 75.5,11.5 Z"/></g>
<g><path style="opacity:0.473" fill="#c4c4c4" d="M 83.5,20.5 C 84.5206,24.9804 85.1873,29.647 85.5,34.5C 83.7895,30.1193 83.1228,25.4526 83.5,20.5 Z"/></g>
<g><path style="opacity:0.196" fill="#bdbdbd" d="M 83.5,18.5 C 112.662,17.5019 141.995,17.1686 171.5,17.5C 171.666,22.1785 171.499,26.8452 171,31.5C 170.768,32.7375 170.268,33.7375 169.5,34.5C 170.194,29.1951 170.528,23.8617 170.5,18.5C 141.5,18.5 112.5,18.5 83.5,18.5 Z"/></g>
<g><path style="opacity:0.537" fill="#c5c5c5" d="M 75.5,28.5 C 77.0823,31.8756 77.7489,35.5422 77.5,39.5C 76.3126,36.0542 75.6459,32.3875 75.5,28.5 Z"/></g>
<g><path style="opacity:0.553" fill="#c4c4c4" d="M 179.5,28.5 C 179.354,32.3875 178.687,36.0542 177.5,39.5C 177.251,35.5422 177.918,31.8756 179.5,28.5 Z"/></g>
<g><path style="opacity:0.839" fill="#aeaeae" d="M 85.5,36.5 C 86.7682,38.9052 87.4349,41.5718 87.5,44.5C 85.9605,42.1617 85.2938,39.4951 85.5,36.5 Z"/></g>
<g><path style="opacity:0.875" fill="#b4b4b4" d="M 169.5,36.5 C 169.829,39.2282 169.163,41.5615 167.5,43.5C 167.721,40.9327 168.388,38.5994 169.5,36.5 Z"/></g>
<g><path style="opacity:0.678" fill="#b2b2b2" d="M 77.5,39.5 C 79.1628,41.4385 79.8294,43.7718 79.5,46.5C 78.3882,44.4006 77.7215,42.0673 77.5,39.5 Z"/></g>
<g><path style="opacity:0.682" fill="#b1b1b1" d="M 167.5,44.5 C 167.834,47.491 166.834,49.8243 164.5,51.5C 164.935,48.8427 165.935,46.5093 167.5,44.5 Z"/></g>
<g><path style="opacity:1" fill="#939393" d="M 87.5,44.5 C 89.5375,48.2613 91.2042,52.2613 92.5,56.5C 91.603,55.4019 90.7697,55.4019 90,56.5C 89.4431,52.4063 88.6098,48.4063 87.5,44.5 Z"/></g>
<g><path style="opacity:1" fill="#626263" d="M 164.5,52.5 C 164.284,54.6807 165.117,56.3474 167,57.5C 167.915,56.6721 168.581,55.6721 169,54.5C 169.953,56.3731 171.12,56.7065 172.5,55.5C 170.509,61.4894 167.509,66.8227 163.5,71.5C 162.094,71.9731 161.427,72.9731 161.5,74.5C 160.167,76.5 158.5,78.1667 156.5,79.5C 155.5,79.8333 154.833,80.5 154.5,81.5C 154.167,82.5 153.5,83.1667 152.5,83.5C 150.973,83.427 149.973,84.0937 149.5,85.5C 149.027,86.9063 148.027,87.573 146.5,87.5C 142.5,88.8333 142.5,90.1667 146.5,91.5C 147.492,91.3284 148.158,91.6618 148.5,92.5C 149.035,94.4456 150.368,95.4456 152.5,95.5C 155.5,97.8333 158.167,100.5 160.5,103.5C 159.167,103.5 157.833,103.5 156.5,103.5C 157.417,106.005 157.417,108.338 156.5,110.5C 155.833,110.167 155.167,109.833 154.5,109.5C 151.51,106.208 148.51,102.874 145.5,99.5C 144.089,97.086 142.089,95.4194 139.5,94.5C 139.027,93.0937 138.027,92.427 136.5,92.5C 134.847,92.3404 133.514,91.6737 132.5,90.5C 132.81,88.8564 133.81,87.8564 135.5,87.5C 139.24,86.0908 142.907,85.0908 146.5,84.5C 147.737,80.6091 149.404,76.9425 151.5,73.5C 152.512,72.1283 153.512,70.795 154.5,69.5C 155.5,69.1667 156.167,68.5 156.5,67.5C 159.518,66.145 160.851,63.8116 160.5,60.5C 161.338,60.1583 161.672,59.4916 161.5,58.5C 161.992,56.1815 162.992,54.1815 164.5,52.5 Z"/></g>
<g><path style="opacity:0.099" fill="#e8e9fc" d="M 93.5,58.5 C 116.167,59.8333 138.833,59.8333 161.5,58.5C 161.672,59.4916 161.338,60.1583 160.5,60.5C 160.167,60.5 159.833,60.5 159.5,60.5C 137.833,60.5 116.167,60.5 94.5,60.5C 93.6618,60.1583 93.3284,59.4916 93.5,58.5 Z"/></g>
<g><path style="opacity:0.879" fill="#9b9cdc" d="M 94.5,60.5 C 116.167,60.5 137.833,60.5 159.5,60.5C 159.737,61.791 159.404,62.791 158.5,63.5C 148.522,62.168 138.189,61.5013 127.5,61.5C 116.811,61.5013 106.478,62.168 96.5,63.5C 95.0937,63.0269 94.427,62.0269 94.5,60.5 Z"/></g>
<g><path style="opacity:0.999" fill="#9b9af1" d="M 158.5,63.5 C 157.4,64.6049 156.733,65.9382 156.5,67.5C 156.167,68.5 155.5,69.1667 154.5,69.5C 155.535,67.795 155.535,66.1284 154.5,64.5C 155.376,63.7492 156.376,63.2492 157.5,63C 137.5,62.3333 117.5,62.3333 97.5,63C 100.299,63.4391 101.299,64.7724 100.5,67C 101.582,68.3297 102.249,69.8297 102.5,71.5C 101.061,69.6397 99.3947,67.973 97.5,66.5C 97.4431,65.391 97.1098,64.391 96.5,63.5C 106.478,62.168 116.811,61.5013 127.5,61.5C 138.189,61.5013 148.522,62.168 158.5,63.5 Z"/></g>
<g><path style="opacity:1" fill="#9998fc" d="M 154.5,69.5 C 153.512,70.795 152.512,72.1283 151.5,73.5C 149.33,74.8382 147.664,76.6716 146.5,79C 143.198,81.9882 139.531,84.4882 135.5,86.5C 133.319,86.2837 131.653,87.117 130.5,89C 127.854,89.4974 125.187,89.6641 122.5,89.5C 121.101,88.1103 119.434,87.1103 117.5,86.5C 116.251,84.8639 114.584,83.6972 112.5,83C 108.643,79.6412 105.309,75.8078 102.5,71.5C 102.249,69.8297 101.582,68.3297 100.5,67C 101.299,64.7724 100.299,63.4391 97.5,63C 117.5,62.3333 137.5,62.3333 157.5,63C 156.376,63.2492 155.376,63.7492 154.5,64.5C 155.535,66.1284 155.535,67.795 154.5,69.5 Z"/></g>
<g><path style="opacity:1" fill="#646587" d="M 159.5,60.5 C 159.833,60.5 160.167,60.5 160.5,60.5C 160.851,63.8116 159.518,66.145 156.5,67.5C 156.733,65.9382 157.4,64.6049 158.5,63.5C 159.404,62.791 159.737,61.791 159.5,60.5 Z"/></g>
<g><path style="opacity:1" fill="#8c8c8c" d="M 88.5,67.5 C 90.0744,67.9371 91.2411,68.9371 92,70.5C 92.3333,69.8333 92.6667,69.1667 93,68.5C 93.4396,70.8659 93.9396,73.1992 94.5,75.5C 92.1468,73.1401 90.1468,70.4735 88.5,67.5 Z"/></g>
<g><path style="opacity:0.004" fill="#dddddd" d="M 163.5,71.5 C 163.573,73.0269 162.906,74.0269 161.5,74.5C 161.427,72.9731 162.094,71.9731 163.5,71.5 Z"/></g>
<g><path style="opacity:0.012" fill="#e0e0e0" d="M 96.5,77.5 C 97.5,77.8333 98.1667,78.5 98.5,79.5C 97.1667,79.5 96.5,78.8333 96.5,77.5 Z"/></g>
<g><path style="opacity:1" fill="#58586b" d="M 97.5,66.5 C 99.3947,67.973 101.061,69.6397 102.5,71.5C 105.309,75.8078 108.643,79.6412 112.5,83C 114.584,83.6972 116.251,84.8639 117.5,86.5C 115.188,85.6805 112.854,84.8471 110.5,84C 107.667,79.8333 104.167,76.3333 100,73.5C 99.6162,70.9398 98.7829,68.6064 97.5,66.5 Z"/></g>
<g><path style="opacity:0.008" fill="#e2e2e0" d="M 156.5,79.5 C 156.5,80.8333 155.833,81.5 154.5,81.5C 154.833,80.5 155.5,79.8333 156.5,79.5 Z"/></g>
<g><path style="opacity:1" fill="#5a596c" d="M 151.5,73.5 C 149.404,76.9425 147.737,80.6091 146.5,84.5C 142.907,85.0908 139.24,86.0908 135.5,87.5C 135.5,87.1667 135.5,86.8333 135.5,86.5C 139.531,84.4882 143.198,81.9882 146.5,79C 147.664,76.6716 149.33,74.8382 151.5,73.5 Z"/></g>
<g><path style="opacity:0.506" fill="#c4c4c4" d="M 102.5,83.5 C 104.027,83.427 105.027,84.0937 105.5,85.5C 103.973,85.573 102.973,84.9063 102.5,83.5 Z"/></g>
<g><path style="opacity:0.008" fill="#dededd" d="M 152.5,83.5 C 152.027,84.9063 151.027,85.573 149.5,85.5C 149.973,84.0937 150.973,83.427 152.5,83.5 Z"/></g>
<g><path style="opacity:0.467" fill="#b9b9b9" d="M 105.5,85.5 C 107.027,85.427 108.027,86.0937 108.5,87.5C 106.973,87.573 105.973,86.9063 105.5,85.5 Z"/></g>
<g><path style="opacity:0.012" fill="#d9d9d8" d="M 108.5,87.5 C 112.5,88.8333 112.5,90.1667 108.5,91.5C 109.833,90.1667 109.833,88.8333 108.5,87.5 Z"/></g>
<g><path style="opacity:0.022" fill="#e1e1e0" d="M 146.5,87.5 C 145.167,88.8333 145.167,90.1667 146.5,91.5C 142.5,90.1667 142.5,88.8333 146.5,87.5 Z"/></g>
<g><path style="opacity:0.976" fill="#a3a2e2" d="M 135.5,86.5 C 135.5,86.8333 135.5,87.1667 135.5,87.5C 133.81,87.8564 132.81,88.8564 132.5,90.5C 131.833,90.5 131.167,90.5 130.5,90.5C 128.5,90.5 126.5,90.5 124.5,90.5C 123.833,90.5 123.167,90.5 122.5,90.5C 122.5,90.1667 122.5,89.8333 122.5,89.5C 125.187,89.6641 127.854,89.4974 130.5,89C 131.653,87.117 133.319,86.2837 135.5,86.5 Z"/></g>
<g><path style="opacity:0.627" fill="#cdcef2" d="M 124.5,90.5 C 126.5,90.5 128.5,90.5 130.5,90.5C 128.5,93.1667 126.5,93.1667 124.5,90.5 Z"/></g>
<g><path style="opacity:0.675" fill="#acacac" d="M 108.5,91.5 C 108.027,92.9063 107.027,93.573 105.5,93.5C 105.973,92.0937 106.973,91.427 108.5,91.5 Z"/></g>
<g><path style="opacity:0.024" fill="#dedde3" d="M 120.5,91.5 C 120.027,92.9063 119.027,93.573 117.5,93.5C 117.973,92.0937 118.973,91.427 120.5,91.5 Z"/></g>
<g><path style="opacity:0.522" fill="#a7a5a7" d="M 136.5,92.5 C 138.027,92.427 139.027,93.0937 139.5,94.5C 137.973,94.573 136.973,93.9063 136.5,92.5 Z"/></g>
<g><path style="opacity:0.518" fill="#bcbcbd" d="M 105.5,93.5 C 105.027,94.9063 104.027,95.573 102.5,95.5C 102.973,94.0937 103.973,93.427 105.5,93.5 Z"/></g>
<g><path style="opacity:0.529" fill="#b8b8b9" d="M 148.5,92.5 C 150.23,93.0256 151.564,94.0256 152.5,95.5C 150.368,95.4456 149.035,94.4456 148.5,92.5 Z"/></g>
<g><path style="opacity:0.678" fill="#b4b4b4" d="M 139.5,94.5 C 142.089,95.4194 144.089,97.086 145.5,99.5C 142.911,98.5806 140.911,96.914 139.5,94.5 Z"/></g>
<g><path style="opacity:0.008" fill="#dfdfdf" d="M 112.5,97.5 C 112.027,98.9063 111.027,99.573 109.5,99.5C 109.5,99.1667 109.5,98.8333 109.5,98.5C 110.391,97.8902 111.391,97.5569 112.5,97.5 Z"/></g>
<g><path style="opacity:0.647" fill="#bababa" d="M 94.5,103.5 C 94.2624,105.404 93.2624,106.738 91.5,107.5C 91.7376,105.596 92.7376,104.262 94.5,103.5 Z"/></g>
<g><path style="opacity:0.682" fill="#bababa" d="M 160.5,103.5 C 162.262,104.262 163.262,105.596 163.5,107.5C 161.738,106.738 160.738,105.404 160.5,103.5 Z"/></g>
<g><path style="opacity:0.016" fill="#d9d9d9" d="M 104.5,104.5 C 104.573,106.027 103.906,107.027 102.5,107.5C 102.427,105.973 103.094,104.973 104.5,104.5 Z"/></g>
<g><path style="opacity:0.459" fill="#bdbdbd" d="M 91.5,107.5 C 91.573,109.027 90.9063,110.027 89.5,110.5C 89.427,108.973 90.0937,107.973 91.5,107.5 Z"/></g>
<g><path style="opacity:0.478" fill="#bebebe" d="M 163.5,107.5 C 164.906,107.973 165.573,108.973 165.5,110.5C 164.094,110.027 163.427,109.027 163.5,107.5 Z"/></g>
<g><path style="opacity:0.012" fill="#dadada" d="M 154.5,109.5 C 155.167,109.833 155.833,110.167 156.5,110.5C 156.5,111.167 156.5,111.833 156.5,112.5C 155.094,112.027 154.427,111.027 154.5,109.5 Z"/></g>
<g><path style="opacity:0.325" fill="#c2c2c2" d="M 89.5,110.5 C 89.2503,112.674 88.2503,114.341 86.5,115.5C 86.7497,113.326 87.7497,111.659 89.5,110.5 Z"/></g>
<g><path style="opacity:0.337" fill="#c6c6c6" d="M 165.5,110.5 C 166.906,110.973 167.573,111.973 167.5,113.5C 166.094,113.027 165.427,112.027 165.5,110.5 Z"/></g>
<g><path style="opacity:1" fill="#646464" d="M 102.5,95.5 C 102.489,97.0174 101.823,98.1841 100.5,99C 102.329,99.2735 103.829,100.107 105,101.5C 105.918,99.6243 107.418,98.6243 109.5,98.5C 109.5,98.8333 109.5,99.1667 109.5,99.5C 108.167,101.5 106.5,103.167 104.5,104.5C 103.094,104.973 102.427,105.973 102.5,107.5C 98.2361,113.701 94.2361,120.034 90.5,126.5C 89.8333,127.167 89.1667,127.833 88.5,128.5C 88.2172,127.711 87.7172,127.044 87,126.5C 85.1852,127.244 83.3519,127.911 81.5,128.5C 81.5,127.833 81.5,127.167 81.5,126.5C 82.3824,122.407 84.049,118.74 86.5,115.5C 88.2503,114.341 89.2503,112.674 89.5,110.5C 90.9063,110.027 91.573,109.027 91.5,107.5C 93.2624,106.738 94.2624,105.404 94.5,103.5C 96.8333,100.5 99.5,97.8333 102.5,95.5 Z"/></g>
<g><path style="opacity:0.824" fill="#b9b9b9" d="M 157.5,114.5 C 159.446,115.035 160.446,116.368 160.5,118.5C 159.026,117.564 158.026,116.23 157.5,114.5 Z"/></g>
<g><path style="opacity:0.925" fill="#a8a8a9" d="M 171.5,121.5 C 173.601,124.797 174.935,128.463 175.5,132.5C 173.358,129.2 172.025,125.533 171.5,121.5 Z"/></g>
<g><path style="opacity:1" fill="#9a99fd" d="M 152.5,137.5 C 152.833,137.5 153.167,137.5 153.5,137.5C 153.369,138.376 153.702,139.043 154.5,139.5C 157.332,141.364 160.332,142.697 163.5,143.5C 163.833,143.5 164.167,143.5 164.5,143.5C 164.759,147.068 166.759,148.401 170.5,147.5C 170.5,151.167 170.5,154.833 170.5,158.5C 141.928,159.831 113.262,159.831 84.5,158.5C 84.7399,154.394 85.4066,150.394 86.5,146.5C 88.8477,146.408 90.5144,145.408 91.5,143.5C 92.5137,142.326 93.847,141.66 95.5,141.5C 97.8477,141.408 99.5144,140.408 100.5,138.5C 102.848,138.408 104.514,137.408 105.5,135.5C 108.29,135.778 110.79,135.111 113,133.5C 114.261,133.759 115.261,134.426 116,135.5C 116.495,133.527 116.662,131.527 116.5,129.5C 118.199,129.66 119.866,129.494 121.5,129C 123.846,125.999 126.846,124.999 130.5,126C 135.336,128.583 140.003,131.417 144.5,134.5C 146.99,136.083 149.657,137.083 152.5,137.5 Z"/></g>
<g><path style="opacity:0.945" fill="#bebdf3" d="M 152.5,137.5 C 149.657,137.083 146.99,136.083 144.5,134.5C 140.003,131.417 135.336,128.583 130.5,126C 126.846,124.999 123.846,125.999 121.5,129C 119.866,129.494 118.199,129.66 116.5,129.5C 119.661,126.75 123.327,124.75 127.5,123.5C 136.343,127.418 144.677,132.084 152.5,137.5 Z"/></g>
<g><path style="opacity:0.839" fill="#aeaeb0" d="M 81.5,126.5 C 81.5,127.167 81.5,127.833 81.5,128.5C 81.3404,130.153 80.6737,131.486 79.5,132.5C 79.595,130.214 80.2616,128.214 81.5,126.5 Z"/></g>
<g><path style="opacity:0.535" fill="#b9b9b9" d="M 176.5,136.5 C 178.344,140.862 179.344,145.529 179.5,150.5C 177.754,146.111 176.754,141.444 176.5,136.5 Z"/></g>
<g><path style="opacity:1" fill="#595858" d="M 160.5,103.5 C 160.738,105.404 161.738,106.738 163.5,107.5C 163.427,109.027 164.094,110.027 165.5,110.5C 165.427,112.027 166.094,113.027 167.5,113.5C 169.341,115.849 170.674,118.515 171.5,121.5C 172.025,125.533 173.358,129.2 175.5,132.5C 176.434,133.568 176.768,134.901 176.5,136.5C 176.754,141.444 177.754,146.111 179.5,150.5C 179.5,150.833 179.5,151.167 179.5,151.5C 179.5,157.167 179.5,162.833 179.5,168.5C 144.833,168.5 110.167,168.5 75.5,168.5C 75.7083,157.751 76.7083,147.084 78.5,136.5C 78.2322,134.901 78.5655,133.568 79.5,132.5C 80.6737,131.486 81.3404,130.153 81.5,128.5C 83.3519,127.911 85.1852,127.244 87,126.5C 87.7172,127.044 88.2172,127.711 88.5,128.5C 88.1667,130.5 87.8333,132.5 87.5,134.5C 86.8333,138.5 86.1667,142.5 85.5,146.5C 83.5636,150.715 82.8969,155.381 83.5,160.5C 83.5,160.833 83.5,161.167 83.5,161.5C 112.997,162.664 142.664,162.831 172.5,162C 173.635,157.252 173.802,152.419 173,147.5C 172.329,146.748 171.496,146.414 170.5,146.5C 170.737,145.209 170.404,144.209 169.5,143.5C 168.366,140.63 167.7,137.63 167.5,134.5C 167.267,131.458 166.267,128.792 164.5,126.5C 162.659,124.151 161.326,121.485 160.5,118.5C 160.446,116.368 159.446,115.035 157.5,114.5C 157.167,113.833 156.833,113.167 156.5,112.5C 156.5,111.833 156.5,111.167 156.5,110.5C 157.417,108.338 157.417,106.005 156.5,103.5C 157.833,103.5 159.167,103.5 160.5,103.5 Z"/></g>
<g><path style="opacity:1" fill="#505263" d="M 170.5,147.5 C 170.5,147.167 170.5,146.833 170.5,146.5C 171.496,146.414 172.329,146.748 173,147.5C 173.802,152.419 173.635,157.252 172.5,162C 142.664,162.831 112.997,162.664 83.5,161.5C 112.833,161.5 142.167,161.5 171.5,161.5C 171.819,156.637 171.486,151.97 170.5,147.5 Z"/></g>
<g><path style="opacity:1" fill="#7776af" d="M 170.5,147.5 C 171.486,151.97 171.819,156.637 171.5,161.5C 142.167,161.5 112.833,161.5 83.5,161.5C 83.5,161.167 83.5,160.833 83.5,160.5C 112.169,160.667 140.835,160.5 169.5,160C 170.056,159.617 170.389,159.117 170.5,158.5C 170.5,154.833 170.5,151.167 170.5,147.5 Z"/></g>
<g><path style="opacity:1" fill="#9a99e9" d="M 85.5,146.5 C 85.8333,146.5 86.1667,146.5 86.5,146.5C 85.4066,150.394 84.7399,154.394 84.5,158.5C 113.262,159.831 141.928,159.831 170.5,158.5C 170.389,159.117 170.056,159.617 169.5,160C 140.835,160.5 112.169,160.667 83.5,160.5C 82.8969,155.381 83.5636,150.715 85.5,146.5 Z"/></g>
<g><path style="opacity:1" fill="#b4b2ec" d="M 164.5,143.5 C 166.229,144.117 167.729,145.117 169,146.5C 169.483,145.552 169.649,144.552 169.5,143.5C 170.404,144.209 170.737,145.209 170.5,146.5C 170.5,146.833 170.5,147.167 170.5,147.5C 166.759,148.401 164.759,147.068 164.5,143.5 Z"/></g>
<g><path style="opacity:0.757" fill="#c0c1f3" d="M 91.5,143.5 C 90.5144,145.408 88.8477,146.408 86.5,146.5C 87.6594,144.75 89.326,143.75 91.5,143.5 Z"/></g>
<g><path style="opacity:0.78" fill="#bfbef2" d="M 100.5,138.5 C 99.5144,140.408 97.8477,141.408 95.5,141.5C 96.6594,139.75 98.326,138.75 100.5,138.5 Z"/></g>
<g><path style="opacity:0.933" fill="#c9c7f3" d="M 153.5,137.5 C 157.201,139.012 160.534,141.012 163.5,143.5C 160.332,142.697 157.332,141.364 154.5,139.5C 153.702,139.043 153.369,138.376 153.5,137.5 Z"/></g>
<g><path style="opacity:0.753" fill="#cecdf6" d="M 105.5,135.5 C 104.514,137.408 102.848,138.408 100.5,138.5C 101.659,136.75 103.326,135.75 105.5,135.5 Z"/></g>
<g><path style="opacity:0.333" fill="#c4c4c6" d="M 164.5,126.5 C 166.267,128.792 167.267,131.458 167.5,134.5C 165.733,132.208 164.733,129.542 164.5,126.5 Z"/></g>
<g><path style="opacity:1" fill="#aba9f4" d="M 116.5,129.5 C 116.662,131.527 116.495,133.527 116,135.5C 115.261,134.426 114.261,133.759 113,133.5C 110.79,135.111 108.29,135.778 105.5,135.5C 108.999,133.25 112.665,131.25 116.5,129.5 Z"/></g>
<g><path style="opacity:0.333" fill="#c4c4c6" d="M 90.5,126.5 C 90.2671,129.542 89.2671,132.208 87.5,134.5C 87.8333,132.5 88.1667,130.5 88.5,128.5C 89.1667,127.833 89.8333,127.167 90.5,126.5 Z"/></g>
<g><path style="opacity:0.468" fill="#afaeb1" d="M 78.5,136.5 C 76.7083,147.084 75.7083,157.751 75.5,168.5C 110.167,168.5 144.833,168.5 179.5,168.5C 179.5,162.833 179.5,157.167 179.5,151.5C 180.49,157.31 180.823,163.31 180.5,169.5C 145.167,169.5 109.833,169.5 74.5,169.5C 73.9126,158.097 75.2459,147.097 78.5,136.5 Z"/></g>
</svg>
